<svg xmlns="http://www.w3.org/2000/svg" viewBox="0 0 24 24" fill="currentColor">
  <path fill-rule="evenodd" d="M12 2C6.477 2 2 6.477 2 12c0 4.419 2.864 8.17 6.839 9.504.499.092.682-.217.682-.483 0-.237-.009-.868-.014-1.703-2.782.605-3.369-1.346-3.369-1.346-.454-1.158-1.11-1.466-1.11-1.466-.908-.62.069-.608.069-.608 1.007.07 1.532 1.03 1.532 1.03.894 1.53 2.342 1.088 2.91.832.092-.645.35-1.088.636-1.338-2.22-.253-4.555-1.11-4.555-4.943 0-1.09.39-1.984 1.03-2.682-.104-.253-.448-1.27.097-2.659 0 0 .84-.27 2.75.99.798-.222 1.64-.333 2.48-.337.84.004 1.682.115 2.48.337 1.908-1.26 2.747-.99 2.747-.99.545 1.389.202 2.406.097 2.659.64.698 1.029 1.592 1.029 2.682 0 3.842-2.338 4.687-4.562 4.935.359.309.678.92.678 1.852 0 1.338-.012 2.419-.012 2.747 0 .268.18.579.688.482C21.14 20.427 24 16.677 24 12c0-5.523-4.477-10-10-10z" clip-rule="evenodd"/>
</svg>