<svg xmlns="http://www.w3.org/2000/svg" viewBox="0 0 24 24" fill="currentColor">
  <path d="M7.8 2h8.4C19.4 2 22 4.6 22 7.8v8.4a5.8 5.8 0 0 1-5.8 5.8H7.8C4.6 22 2 19.4 2 16.2V7.8A5.8 5.8 0 0 1 7.8 2m0 2a3.8 3.8 0 0 0-3.8 3.8v8.4a3.8 3.8 0 0 0 3.8 3.8h8.4a3.8 3.8 0 0 0 3.8-3.8V7.8a3.8 3.8 0 0 0-3.8-3.8H7.8m7.5 1.2a1.2 1.2 0 0 1 1.2 1.2a1.2 1.2 0 0 1-1.2 1.2a1.2 1.2 0 0 1-1.2-1.2a1.2 1.2 0 0 1 1.2-1.2M12 7a5 5 0 0 1 5 5a5 5 0 0 1-5 5a5 5 0 0 1-5-5a5 5 0 0 1 5-5m0 2a3 3 0 0 0-3 3a3 3 0 0 0 3 3a3 3 0 0 0 3-3a3 3 0 0 0-3-3Z"/>
</svg>